<svg xmlns="http://www.w3.org/2000/svg" width="1920" height="1080" fill="none"><div id="x" hidden="">D</div><g opacity=".2" clip-path="url(#E)"><div id="x" hidden="">D</div><path d="M1466.4 1795.2c950.37 0 1720.8-627.52 1720.8-1401.6S2416.77-1008 1466.4-1008-254.4-380.482-254.4 393.6s770.428 1401.6 1720.8 1401.6z" fill="url(#A)"/><div id="x" hidden="">D</div><path d="M394.2 1815.6c746.58 0 1351.8-493.2 1351.8-1101.6S1140.78-387.6 394.2-387.6-957.6 105.603-957.6 714-352.38 1815.6 394.2 1815.6z" fill="url(#B)"/><div id="x" hidden="">D</div><path d="M1548.6 1885.2c631.92 0 1144.2-417.45 1144.2-932.4S2180.52 20.4 1548.6 20.4 404.4 437.85 404.4 952.8s512.276 932.4 1144.2 932.4z" fill="url(#C)"/><div id="x" hidden="">D</div><path d="M265.8 1215.6c690.246 0 1249.8-455.595 1249.8-1017.6S956.046-819.6 265.8-819.6-984-364.005-984 198-424.445 1215.6 265.8 1215.6z" fill="url(#D)"/><div id="x" hidden="">D</div></g><div id="x" hidden="">D</div><defs><div id="x" hidden="">D</div><radialGradient id="A" cx="0" cy="0" r="1" gradientUnits="userSpaceOnUse" gradientTransform="translate(1466.4 393.6) rotate(90) scale(1401.6 1720.8)"><div id="x" hidden="">D</div><stop stop-color="#107c10"/><div id="x" hidden="">D</div><stop offset="1" stop-color="#c4c4c4" stop-opacity="0"/><div id="x" hidden="">D</div></radialGradient><div id="x" hidden="">D</div><radialGradient id="B" cx="0" cy="0" r="1" gradientUnits="userSpaceOnUse" gradientTransform="translate(394.2 714) rotate(90) scale(1101.6 1351.8)"><div id="x" hidden="">D</div><stop stop-color="#0078d4"/><div id="x" hidden="">D</div><stop offset="1" stop-color="#c4c4c4" stop-opacity="0"/><div id="x" hidden="">D</div></radialGradient><div id="x" hidden="">D</div><radialGradient id="C" cx="0" cy="0" r="1" gradientUnits="userSpaceOnUse" gradientTransform="translate(1548.6 952.8) rotate(90) scale(932.4 1144.2)"><div id="x" hidden="">D</div><stop stop-color="#ffb900" stop-opacity=".75"/><div id="x" hidden="">D</div><stop offset="1" stop-color="#c4c4c4" stop-opacity="0"/><div id="x" hidden="">D</div></radialGradient><div id="x" hidden="">D</div><radialGradient id="D" cx="0" cy="0" r="1" gradientUnits="userSpaceOnUse" gradientTransform="translate(265.8 198) rotate(90) scale(1017.6 1249.8)"><div id="x" hidden="">D</div><stop stop-color="#d83b01" stop-opacity=".75"/><div id="x" hidden="">D</div><stop offset="1" stop-color="#c4c4c4" stop-opacity="0"/><div id="x" hidden="">D</div></radialGradient><div id="x" hidden="">D</div><clipPath id="E"><div id="x" hidden="">D</div><path fill="#fff" d="M0 0h1920v1080H0z"/><div id="x" hidden="">D</div></clipPath><div id="x" hidden="">D</div></defs><div id="x" hidden="">D</div></svg>